<?xml version="1.0" standalone="no"?>
<!DOCTYPE svg PUBLIC "-//W3C//DTD SVG 20010904//EN"
 "http://www.w3.org/TR/2001/REC-SVG-20010904/DTD/svg10.dtd">
<svg version="1.0" xmlns="http://www.w3.org/2000/svg"
 width="225.000000pt" height="225.000000pt" viewBox="0 0 225.000000 225.000000"
 preserveAspectRatio="xMidYMid meet">

<g transform="translate(0.000000,225.000000) scale(0.100000,-0.100000)"
fill="#000000" stroke="none">
<path d="M1059 2246 c-2 -3 -51 -14 -109 -25 -246 -49 -422 -138 -587 -294
-96 -91 -161 -179 -222 -297 -58 -114 -82 -185 -116 -345 -30 -145 -31 -165
-4 -313 25 -147 57 -241 121 -364 121 -231 322 -414 568 -515 111 -46 321 -93
415 -93 94 0 304 47 415 93 303 125 540 379 644 687 27 81 66 285 66 345 0 30
-23 179 -44 280 -2 11 -18 57 -36 102 -17 46 -31 86 -31 90 0 5 -8 16 -16 26
-9 9 -12 17 -7 17 5 0 4 4 -2 8 -6 4 -21 27 -35 52 -13 25 -34 56 -46 70 -13
14 -23 29 -23 33 0 5 -11 18 -25 29 -14 11 -25 24 -25 29 0 13 -85 99 -98 99
-6 0 -19 11 -30 25 -11 14 -24 25 -29 25 -4 0 -20 10 -33 23 -14 12 -47 33
-73 47 -26 13 -47 28 -47 33 0 4 -4 6 -9 2 -5 -3 -16 2 -25 10 -8 9 -19 16
-23 16 -4 0 -44 13 -88 30 -44 17 -89 33 -100 35 -175 36 -332 54 -346 40z
m-144 -450 c30 -13 74 -43 99 -66 64 -59 117 -171 86 -182 -5 -1 36 -3 93 -3
120 -1 201 -24 294 -84 116 -75 209 -218 220 -340 6 -59 6 -59 41 -66 101 -19
188 -93 212 -180 37 -132 -45 -271 -181 -305 -30 -7 -215 -10 -579 -8 l-535 3
-68 33 c-225 111 -237 412 -20 534 l54 31 -38 17 c-113 50 -193 225 -164 359
48 227 282 350 486 257z"/>
<path d="M815 1398 l-40 -43 43 40 c39 36 47 45 39 45 -2 0 -21 -19 -42 -42z"/>
</g>
</svg>
